<svg xmlns="http://www.w3.org/2000/svg" viewBox="350 170 1280 890" width="1280" height="890"><rect x="350" y="170" width="1280" height="890" fill="#f9fbfd"></rect><style >.plan-label{font:18px sans-serif;fill:#23445d}.corridor-label{font:14px sans-serif;fill:#54778e}</style><g data-kind="corridor"><rect x="399" y="878" width="1119" height="44" rx="0" fill="#e7f1f6" stroke="none" stroke-width="2"></rect></g><g data-kind="corridor"><rect x="467" y="641" width="40" height="259" rx="0" fill="#e7f1f6" stroke="none" stroke-width="2"></rect></g><g data-kind="corridor"><rect x="879" y="838" width="252" height="138" rx="0" fill="#e7f1f6" stroke="none" stroke-width="2"></rect></g><g data-kind="corridor"><rect x="978" y="809" width="44" height="91" rx="0" fill="#e7f1f6" stroke="none" stroke-width="2"></rect></g><g data-kind="room"><rect x="393" y="633" width="72" height="103.5" rx="3" fill="#ffffff" stroke="#68879e" stroke-width="2"></rect><text x="429" y="684.75" text-anchor="middle" dominant-baseline="middle" class="plan-label" style="font-size:14px"><tspan x="429" dy="0">528</tspan></text></g><g data-kind="room"><rect x="509" y="634" width="72" height="103" rx="3" fill="#ffffff" stroke="#68879e" stroke-width="2"></rect><text x="545" y="685.5" text-anchor="middle" dominant-baseline="middle" class="plan-label" style="font-size:14px"><tspan x="545" dy="0">530</tspan></text></g><g data-kind="room"><rect x="393" y="744.88" width="72" height="96.12" rx="3" fill="#ffffff" stroke="#68879e" stroke-width="2"></rect><text x="429" y="792.94" text-anchor="middle" dominant-baseline="middle" class="plan-label" style="font-size:14px"><tspan x="429" dy="0">526</tspan></text></g><g data-kind="room"><rect x="509" y="775" width="72" height="29" rx="3" fill="#ffffff" stroke="#68879e" stroke-width="2"></rect><text x="545" y="789.5" text-anchor="middle" dominant-baseline="middle" class="plan-label" style="font-size:14px"><tspan x="545" dy="0">519</tspan></text></g><g data-kind="room"><rect x="473" y="808" width="104" height="66" rx="3" fill="#ffffff" stroke="#68879e" stroke-width="2"></rect><text x="525" y="841" text-anchor="middle" dominant-baseline="middle" class="plan-label" style="font-size:18px"><tspan x="525" dy="0">517</tspan></text></g><g data-kind="room"><rect x="581" y="808" width="113.5" height="66" rx="3" fill="#ffffff" stroke="#68879e" stroke-width="2"></rect><text x="637.75" y="841" text-anchor="middle" dominant-baseline="middle" class="plan-label" style="font-size:18px"><tspan x="637.75" dy="0">513</tspan></text></g><g data-kind="toilet"><rect x="698.5" y="808" width="83" height="66" rx="3" fill="#e4e9ef" stroke="#68879e" stroke-width="2"></rect><text x="740" y="841" text-anchor="middle" dominant-baseline="middle" class="plan-label" style="font-size:14px"><tspan x="740" dy="0">С/У</tspan></text></g><g data-kind="room"><rect x="785.5" y="808" width="89.5" height="66" rx="3" fill="#ffffff" stroke="#68879e" stroke-width="2"></rect><text x="830.25" y="841" text-anchor="middle" dominant-baseline="middle" class="plan-label" style="font-size:14px"><tspan x="830.25" dy="0">511</tspan></text></g><g data-kind="room"><rect x="1135" y="808" width="70" height="66" rx="3" fill="#ffffff" stroke="#68879e" stroke-width="2"></rect><text x="1170" y="841" text-anchor="middle" dominant-baseline="middle" class="plan-label" style="font-size:14px"><tspan x="1170" dy="0">509</tspan></text></g><g data-kind="toilet"><rect x="1209" y="808" width="67.5" height="66" rx="3" fill="#e4e9ef" stroke="#68879e" stroke-width="2"></rect><text x="1242.75" y="841" text-anchor="middle" dominant-baseline="middle" class="plan-label" style="font-size:14px"><tspan x="1242.75" dy="0">С/У</tspan></text></g><g data-kind="room"><rect x="1280.5" y="808" width="78.5" height="66" rx="3" fill="#ffffff" stroke="#68879e" stroke-width="2"></rect><text x="1319.75" y="841" text-anchor="middle" dominant-baseline="middle" class="plan-label" style="font-size:14px"><tspan x="1319.75" dy="0">507</tspan></text></g><g data-kind="room"><rect x="1363" y="808" width="67.5" height="66" rx="3" fill="#ffffff" stroke="#68879e" stroke-width="2"></rect><text x="1396.75" y="841" text-anchor="middle" dominant-baseline="middle" class="plan-label" style="font-size:14px"><tspan x="1396.75" dy="0">505</tspan></text></g><g data-kind="room"><rect x="1434.5" y="808" width="63" height="66" rx="3" fill="#ffffff" stroke="#68879e" stroke-width="2"></rect><text x="1466" y="841" text-anchor="middle" dominant-baseline="middle" class="plan-label" style="font-size:14px"><tspan x="1466" dy="0">503</tspan></text></g><g data-kind="room"><rect x="1501.5" y="808" width="80.5" height="66" rx="3" fill="#ffffff" stroke="#68879e" stroke-width="2"></rect><text x="1541.75" y="841" text-anchor="middle" dominant-baseline="middle" class="plan-label" style="font-size:14px"><tspan x="1541.75" dy="0">501</tspan></text></g><g data-kind="room"><rect x="399" y="925" width="69.5" height="66" rx="3" fill="#ffffff" stroke="#68879e" stroke-width="2"></rect><text x="433.75" y="958" text-anchor="middle" dominant-baseline="middle" class="plan-label" style="font-size:14px"><tspan x="433.75" dy="0">524</tspan></text></g><g data-kind="room"><rect x="472.5" y="925" width="96" height="66" rx="3" fill="#ffffff" stroke="#68879e" stroke-width="2"></rect><text x="520.5" y="958" text-anchor="middle" dominant-baseline="middle" class="plan-label" style="font-size:18px"><tspan x="520.5" dy="0">522</tspan></text></g><g data-kind="room"><rect x="572.5" y="925" width="119.5" height="66" rx="3" fill="#ffffff" stroke="#68879e" stroke-width="2"></rect><text x="632.25" y="958" text-anchor="middle" dominant-baseline="middle" class="plan-label" style="font-size:18px"><tspan x="632.25" dy="0">518</tspan></text></g><g data-kind="room"><rect x="696" y="925" width="86" height="66" rx="3" fill="#ffffff" stroke="#68879e" stroke-width="2"></rect><text x="739" y="958" text-anchor="middle" dominant-baseline="middle" class="plan-label" style="font-size:14px"><tspan x="739" dy="0">516</tspan></text></g><g data-kind="room"><rect x="786" y="925" width="89" height="66" rx="3" fill="#ffffff" stroke="#68879e" stroke-width="2"></rect><text x="830.5" y="958" text-anchor="middle" dominant-baseline="middle" class="plan-label" style="font-size:14px"><tspan x="830.5" dy="0">514</tspan></text></g><g data-kind="room"><rect x="1135" y="925" width="68.5" height="66" rx="3" fill="#ffffff" stroke="#68879e" stroke-width="2"></rect><text x="1169.25" y="958" text-anchor="middle" dominant-baseline="middle" class="plan-label" style="font-size:14px"><tspan x="1169.25" dy="0">510</tspan></text></g><g data-kind="room"><rect x="1207.5" y="925" width="73.5" height="66" rx="3" fill="#ffffff" stroke="#68879e" stroke-width="2"></rect><text x="1244.25" y="958" text-anchor="middle" dominant-baseline="middle" class="plan-label" style="font-size:14px"><tspan x="1244.25" dy="0">508</tspan></text></g><g data-kind="room"><rect x="1285" y="925" width="73.5" height="66" rx="3" fill="#ffffff" stroke="#68879e" stroke-width="2"></rect><text x="1321.75" y="958" text-anchor="middle" dominant-baseline="middle" class="plan-label" style="font-size:14px"><tspan x="1321.75" dy="0">506</tspan></text></g><g data-kind="room"><rect x="1362.5" y="925" width="81.5" height="66" rx="3" fill="#ffffff" stroke="#68879e" stroke-width="2"></rect><text x="1403.25" y="958" text-anchor="middle" dominant-baseline="middle" class="plan-label" style="font-size:14px"><tspan x="1403.25" dy="0">504</tspan></text></g><g data-kind="service"><rect x="880" y="635" width="240" height="174" rx="3" fill="#e9f2ff" stroke="#68879e" stroke-width="2"></rect><text x="1000" y="722" text-anchor="middle" dominant-baseline="middle" class="plan-label" style="font-size:18px"><tspan x="1000" dy="0">Музей истории ТулГУ</tspan></text></g><g data-kind="stairs"><rect x="519" y="735" width="36" height="30" rx="3" fill="#d1e3ee" stroke="#68879e" stroke-width="2"></rect><line x1="525" y1="740" x2="549" y2="740" stroke="#356984" stroke-width="2"></line><line x1="525" y1="744" x2="549" y2="744" stroke="#356984" stroke-width="2"></line><line x1="525" y1="748" x2="549" y2="748" stroke="#356984" stroke-width="2"></line><line x1="525" y1="752" x2="549" y2="752" stroke="#356984" stroke-width="2"></line><line x1="525" y1="756" x2="549" y2="756" stroke="#356984" stroke-width="2"></line><path d="M 547 760 L 547 741 l -4 5 m 4 -5 l 4 5" stroke="#124c70" stroke-width="2" fill="none"></path></g><g data-kind="stairs"><rect x="882" y="843" width="36" height="30" rx="3" fill="#d1e3ee" stroke="#68879e" stroke-width="2"></rect><line x1="888" y1="848" x2="912" y2="848" stroke="#356984" stroke-width="2"></line><line x1="888" y1="852" x2="912" y2="852" stroke="#356984" stroke-width="2"></line><line x1="888" y1="856" x2="912" y2="856" stroke="#356984" stroke-width="2"></line><line x1="888" y1="860" x2="912" y2="860" stroke="#356984" stroke-width="2"></line><line x1="888" y1="864" x2="912" y2="864" stroke="#356984" stroke-width="2"></line><path d="M 910 868 L 910 849 l -4 5 m 4 -5 l 4 5" stroke="#124c70" stroke-width="2" fill="none"></path></g><g data-kind="stairs"><rect x="1087" y="847" width="36" height="30" rx="3" fill="#d1e3ee" stroke="#68879e" stroke-width="2"></rect><line x1="1093" y1="852" x2="1117" y2="852" stroke="#356984" stroke-width="2"></line><line x1="1093" y1="856" x2="1117" y2="856" stroke="#356984" stroke-width="2"></line><line x1="1093" y1="860" x2="1117" y2="860" stroke="#356984" stroke-width="2"></line><line x1="1093" y1="864" x2="1117" y2="864" stroke="#356984" stroke-width="2"></line><line x1="1093" y1="868" x2="1117" y2="868" stroke="#356984" stroke-width="2"></line><path d="M 1115 872 L 1115 853 l -4 5 m 4 -5 l 4 5" stroke="#124c70" stroke-width="2" fill="none"></path></g><g data-kind="stairs"><rect x="1497" y="946" width="36" height="30" rx="3" fill="#d1e3ee" stroke="#68879e" stroke-width="2"></rect><line x1="1503" y1="951" x2="1527" y2="951" stroke="#356984" stroke-width="2"></line><line x1="1503" y1="955" x2="1527" y2="955" stroke="#356984" stroke-width="2"></line><line x1="1503" y1="959" x2="1527" y2="959" stroke="#356984" stroke-width="2"></line><line x1="1503" y1="963" x2="1527" y2="963" stroke="#356984" stroke-width="2"></line><line x1="1503" y1="967" x2="1527" y2="967" stroke="#356984" stroke-width="2"></line><path d="M 1525 971 L 1525 952 l -4 5 m 4 -5 l 4 5" stroke="#124c70" stroke-width="2" fill="none"></path></g><g data-kind="stairs"><rect x="982" y="647" width="36" height="30" rx="3" fill="#d1e3ee" stroke="#68879e" stroke-width="2"></rect><line x1="988" y1="652" x2="1012" y2="652" stroke="#356984" stroke-width="2"></line><line x1="988" y1="656" x2="1012" y2="656" stroke="#356984" stroke-width="2"></line><line x1="988" y1="660" x2="1012" y2="660" stroke="#356984" stroke-width="2"></line><line x1="988" y1="664" x2="1012" y2="664" stroke="#356984" stroke-width="2"></line><line x1="988" y1="668" x2="1012" y2="668" stroke="#356984" stroke-width="2"></line><path d="M 1010 672 L 1010 653 l -4 5 m 4 -5 l 4 5" stroke="#124c70" stroke-width="2" fill="none"></path></g><line x1="467" y1="674.75" x2="467" y2="694.75" stroke="#e7f1f6" stroke-width="5"></line><line x1="507" y1="675.5" x2="507" y2="695.5" stroke="#e7f1f6" stroke-width="5"></line><line x1="467" y1="782.94" x2="467" y2="802.94" stroke="#e7f1f6" stroke-width="5"></line><line x1="507" y1="779.5" x2="507" y2="799.5" stroke="#e7f1f6" stroke-width="5"></line><line x1="506" y1="874" x2="526" y2="874" stroke="#e7f1f6" stroke-width="5"></line><line x1="632" y1="874" x2="652" y2="874" stroke="#e7f1f6" stroke-width="5"></line><line x1="806" y1="874" x2="826" y2="874" stroke="#e7f1f6" stroke-width="5"></line><line x1="1164" y1="874" x2="1184" y2="874" stroke="#e7f1f6" stroke-width="5"></line><line x1="1307" y1="874" x2="1327" y2="874" stroke="#e7f1f6" stroke-width="5"></line><line x1="1395" y1="874" x2="1415" y2="874" stroke="#e7f1f6" stroke-width="5"></line><line x1="1450" y1="874" x2="1470" y2="874" stroke="#e7f1f6" stroke-width="5"></line><line x1="1529" y1="874" x2="1549" y2="874" stroke="#e7f1f6" stroke-width="5"></line><line x1="432" y1="925" x2="452" y2="925" stroke="#e7f1f6" stroke-width="5"></line><line x1="489" y1="925" x2="509" y2="925" stroke="#e7f1f6" stroke-width="5"></line><line x1="632" y1="925" x2="652" y2="925" stroke="#e7f1f6" stroke-width="5"></line><line x1="736" y1="925" x2="756" y2="925" stroke="#e7f1f6" stroke-width="5"></line><line x1="812" y1="925" x2="832" y2="925" stroke="#e7f1f6" stroke-width="5"></line><line x1="1155" y1="925" x2="1175" y2="925" stroke="#e7f1f6" stroke-width="5"></line><line x1="1236" y1="925" x2="1256" y2="925" stroke="#e7f1f6" stroke-width="5"></line><line x1="1310" y1="925" x2="1330" y2="925" stroke="#e7f1f6" stroke-width="5"></line><line x1="1391" y1="925" x2="1411" y2="925" stroke="#e7f1f6" stroke-width="5"></line><line x1="990" y1="809" x2="1010" y2="809" stroke="#e7f1f6" stroke-width="5"></line><line x1="741" y1="874" x2="761" y2="874" stroke="#e7f1f6" stroke-width="5"></line><line x1="1230" y1="874" x2="1250" y2="874" stroke="#e7f1f6" stroke-width="5"></line><text x="1000" y="905" text-anchor="middle" class="corridor-label">ХОЛЛ</text></svg>